<?xml version="1.0" encoding="UTF-8" standalone="no"?>
<svg xmlns="http://www.w3.org/2000/svg" version="1.2" baseProfile="tiny" viewBox="0.00 0.00 371.00 135.00">
<circle fill="#37c5fd" cx="57.96" cy="26.80" r="5.23"/>
<circle fill="#37c5fd" cx="44.81" cy="40.01" r="5.20"/>
<circle fill="#37c5fd" cx="57.72" cy="39.97" r="5.23"/>
<circle fill="#37c5fd" cx="70.67" cy="40.00" r="5.20"/>
<path fill="#223255" d="
  M 224.31 52.76
  L 227.56 53.05
  Q 228.50 53.13 228.30 54.05
  L 227.06 59.73
  Q 226.88 60.54 226.05 60.42
  L 223.24 59.98
  Q 222.76 59.91 222.69 60.39
  C 222.40 62.58 222.15 68.15 224.78 69.28
  Q 226.94 70.21 228.61 68.11
  Q 228.74 67.95 228.83 68.14
  L 231.36 73.41
  Q 231.50 73.69 231.28 73.93
  C 228.21 77.28 221.02 79.35 217.32 75.97
  C 213.73 72.69 214.19 64.37 215.00 59.93
  Q 215.09 59.42 214.58 59.29
  Q 213.36 58.98 212.16 59.12
  Q 211.25 59.22 211.34 58.30
  L 211.93 52.34
  A 0.81 0.80 6.3 0 1 212.83 51.62
  L 215.49 51.97
  A 0.60 0.60 0.0 0 0 216.16 51.47
  L 216.78 47.74
  Q 216.96 46.67 218.02 46.92
  L 224.21 48.35
  Q 224.92 48.52 224.73 49.22
  L 223.94 52.23
  Q 223.82 52.72 224.31 52.76
  Z"
/>
<circle fill="#37c5fd" cx="31.84" cy="53.28" r="5.20"/>
<circle fill="#37c5fd" cx="44.81" cy="53.26" r="5.21"/>
<circle fill="#37c5fd" cx="57.74" cy="53.27" r="5.22"/>
<circle fill="#37c5fd" cx="70.69" cy="53.27" r="5.22"/>
<circle fill="#37c5fd" cx="83.64" cy="53.27" r="5.22"/>
<path fill="#223255" d="
  M 242.72 51.76
  Q 246.48 49.20 252.16 52.14
  Q 253.41 52.78 252.59 53.93
  L 249.37 58.45
  Q 249.02 58.94 248.43 58.84
  C 244.39 58.12 241.74 61.17 241.91 65.05
  Q 242.14 70.29 241.94 75.06
  Q 241.93 75.24 241.75 75.26
  L 234.02 76.19
  Q 233.76 76.22 233.76 75.96
  L 233.23 52.05
  A 0.38 0.37 86.8 0 1 233.57 51.66
  L 241.27 50.85
  Q 241.59 50.81 241.83 51.03
  Q 241.97 51.15 241.97 51.38
  A 0.48 0.48 0.0 0 0 242.72 51.76
  Z"
/>
<path fill="#223255" d="
  M 176.51 67.55
  A 1.41 1.40 -72.9 0 0 175.46 65.56
  Q 173.73 65.29 171.96 65.27
  C 168.74 65.24 165.90 63.25 164.98 60.26
  C 163.50 55.45 167.75 51.67 172.19 51.01
  Q 175.78 50.47 178.99 51.09
  Q 179.95 51.28 179.76 52.23
  L 178.86 56.63
  Q 178.64 57.72 177.65 57.22
  Q 176.56 56.68 173.36 56.79
  Q 172.18 56.83 172.13 58.01
  L 172.11 58.39
  Q 172.05 59.54 173.17 59.83
  Q 174.85 60.26 176.69 60.25
  C 182.56 60.23 185.54 67.83 182.03 72.09
  Q 179.86 74.73 176.32 75.21
  Q 171.86 75.82 166.72 73.81
  Q 166.43 73.70 166.56 73.42
  L 169.11 67.57
  Q 169.19 67.40 169.36 67.50
  C 171.00 68.49 175.41 69.88 176.51 67.55
  Z"
/>
<path fill="#223255" d="
  M 315.13 53.38
  C 318.08 49.97 324.28 49.78 327.12 53.25
  Q 327.42 53.61 327.73 53.27
  Q 329.11 51.80 331.26 51.26
  C 338.73 49.40 343.49 54.46 344.15 61.42
  Q 344.83 68.44 343.96 75.56
  Q 343.94 75.76 343.73 75.75
  L 335.32 75.28
  Q 335.11 75.27 335.15 75.05
  Q 336.61 67.46 335.22 59.67
  A 1.93 1.93 0.0 0 0 333.06 58.09
  C 328.64 58.70 328.97 72.09 328.98 75.23
  A 0.19 0.18 -86.1 0 1 328.77 75.42
  L 321.76 74.39
  Q 321.55 74.36 321.59 74.15
  Q 322.79 67.31 321.71 60.21
  C 321.50 58.88 320.20 56.85 318.57 57.46
  C 315.95 58.45 315.79 61.97 315.76 64.45
  Q 315.69 70.42 315.92 75.52
  Q 315.93 75.71 315.73 75.74
  L 307.75 76.71
  Q 307.52 76.74 307.50 76.50
  L 306.03 54.20
  A 0.52 0.52 0.0 0 1 306.43 53.66
  L 314.03 51.89
  Q 314.79 51.71 314.78 52.50
  L 314.78 53.25
  Q 314.77 53.79 315.13 53.38
  Z"
/>
<path fill="#223255" d="
  M 197.39 72.14
  C 186.92 74.25 183.86 62.68 183.73 54.85
  Q 183.72 54.48 184.08 54.36
  L 191.58 51.84
  Q 191.78 51.77 191.78 51.98
  C 191.93 55.59 192.75 64.21 197.29 64.55
  A 1.00 1.00 0.0 0 0 198.36 63.55
  L 198.33 51.73
  Q 198.32 51.28 198.77 51.26
  L 206.26 50.94
  Q 206.73 50.92 206.74 51.38
  Q 206.93 62.67 205.87 73.67
  C 205.42 78.37 204.61 82.78 200.15 85.18
  Q 197.72 86.49 195.14 86.22
  Q 191.47 85.84 188.32 84.70
  Q 187.33 84.34 187.58 83.33
  L 189.15 76.97
  Q 189.42 75.86 190.42 76.44
  C 194.11 78.60 198.34 78.37 198.21 72.79
  Q 198.19 71.98 197.39 72.14
  Z"
/>
<path fill="#223255" d="
  M 121.52 65.47
  Q 120.16 65.81 121.18 66.77
  L 122.23 67.76
  A 3.27 3.24 -30.6 0 0 125.29 68.53
  Q 127.27 68.01 128.70 66.86
  Q 129.18 66.47 129.70 66.82
  L 134.31 69.91
  Q 134.79 70.23 134.42 70.68
  C 124.92 82.06 108.96 72.10 112.87 59.12
  C 114.39 54.09 118.81 51.83 123.72 51.30
  C 129.97 50.62 133.94 55.69 135.41 61.41
  Q 135.56 62.03 134.95 62.18
  L 121.52 65.47
  Z
  M 120.62 60.50
  L 127.33 58.59
  A 0.16 0.16 0.0 0 0 127.44 58.39
  L 127.42 58.34
  A 3.50 3.02 -15.9 0 0 123.23 56.39
  L 122.94 56.47
  A 3.50 3.02 -15.9 0 0 120.40 60.34
  L 120.42 60.39
  A 0.16 0.16 0.0 0 0 120.62 60.50
  Z"
/>
<path fill="#223255" d="
  M 262.19 65.45
  Q 260.36 65.90 261.89 67.00
  Q 262.38 67.36 262.87 67.71
  Q 264.35 68.78 266.12 68.38
  Q 268.06 67.94 269.32 66.80
  Q 269.77 66.39 270.28 66.73
  L 274.94 69.87
  Q 275.55 70.28 275.05 70.83
  Q 271.76 74.35 269.05 75.14
  C 260.79 77.53 253.65 71.91 253.00 63.46
  C 252.42 55.83 258.58 51.19 265.71 51.29
  C 271.11 51.38 274.56 55.90 275.97 60.76
  Q 276.33 62.00 275.08 62.31
  L 262.19 65.45
  Z
  M 267.11 57.28
  Q 262.17 54.94 260.90 59.59
  A 0.67 0.67 0.0 0 0 261.80 60.39
  Q 264.24 59.38 266.87 58.96
  Q 269.70 58.50 267.11 57.28
  Z"
/>
<path fill="#223255" d="
  M 154.77 53.28
  L 154.74 52.77
  Q 154.71 52.24 155.23 52.29
  L 162.50 52.94
  Q 163.23 53.00 163.22 53.74
  L 162.77 76.51
  A 0.49 0.49 0.0 0 1 162.23 76.99
  L 155.50 76.29
  Q 155.02 76.24 155.01 75.75
  L 154.99 74.72
  Q 154.97 73.96 154.31 74.33
  C 149.06 77.26 143.55 76.85 139.86 71.87
  C 136.76 67.67 136.04 62.73 138.66 58.13
  C 141.89 52.46 148.25 50.17 154.05 53.72
  Q 154.82 54.19 154.77 53.28
  Z
  M 154.63 63.27
  A 4.67 4.67 0.0 0 0 149.96 58.60
  A 4.67 4.67 0.0 0 0 145.29 63.27
  A 4.67 4.67 0.0 0 0 149.96 67.94
  A 4.67 4.67 0.0 0 0 154.63 63.27
  Z"
/>
<path fill="#223255" d="
  M 295.34 53.87
  Q 295.15 53.34 295.13 52.78
  Q 295.12 52.24 295.66 52.29
  L 303.28 52.98
  Q 303.78 53.02 303.77 53.53
  L 303.26 76.53
  Q 303.24 77.06 302.72 77.00
  L 296.00 76.34
  Q 295.47 76.28 295.49 75.75
  L 295.53 74.51
  Q 295.54 73.92 295.02 74.21
  Q 288.60 77.75 284.01 75.00
  C 278.55 71.71 276.36 65.66 278.55 59.65
  Q 279.70 56.50 282.45 54.47
  Q 288.71 49.84 294.95 54.17
  Q 295.62 54.64 295.34 53.87
  Z
  M 290.1750 68.0245
  A 4.80 4.60 94.6 0 0 295.1452 63.6089
  A 4.80 4.60 94.6 0 0 290.9450 58.4555
  A 4.80 4.60 94.6 0 0 285.9748 62.8711
  A 4.80 4.60 94.6 0 0 290.1750 68.0245
  Z"
/>
<circle fill="#37c5fd" cx="18.83" cy="66.56" r="5.20"/>
<circle fill="#37c5fd" cx="31.84" cy="66.56" r="5.23"/>
<circle fill="#37c5fd" cx="44.82" cy="66.55" r="5.23"/>
<circle fill="#37c5fd" cx="57.77" cy="66.54" r="5.24"/>
<circle fill="#37c5fd" cx="70.72" cy="66.56" r="5.24"/>
<circle fill="#37c5fd" cx="83.68" cy="66.56" r="5.25"/>
<circle fill="#37c5fd" cx="96.76" cy="66.55" r="5.22"/>
<circle fill="#1ddcfd" cx="31.89" cy="79.83" r="5.22"/>
<circle fill="#1ddcfd" cx="44.85" cy="79.84" r="5.22"/>
<circle fill="#1ddcfd" cx="57.78" cy="79.84" r="5.22"/>
<circle fill="#1ddcfd" cx="70.74" cy="79.83" r="5.22"/>
<circle fill="#1ddcfd" cx="83.70" cy="79.84" r="5.22"/>
<circle fill="#1ddcfd" cx="83.69" cy="93.12" r="5.19"/>
<circle fill="#1ddcfd" cx="31.88" cy="93.15" r="5.18"/>
<circle fill="#1ddcfd" cx="44.85" cy="93.14" r="5.18"/>
<circle fill="#1ddcfd" cx="70.74" cy="93.13" r="5.18"/>
<circle fill="#1ddcfd" cx="32.10" cy="106.40" r="5.23"/>
<ellipse fill="#1ddcfd" cx="0.00" cy="0.00" transform="translate(83.89,106.42) rotate(-5.6)" rx="5.32" ry="5.19"/>
</svg>
